<?xml version="1.0" encoding="UTF-8" standalone="no"?>
<!DOCTYPE svg PUBLIC "-//W3C//DTD SVG 1.1//EN" "http://www.w3.org/Graphics/SVG/1.1/DTD/svg11.dtd">
<svg xmlns="http://www.w3.org/2000/svg" version="1.1" viewBox="0 0 192 192">
<g stroke-width="2.00" fill="none" stroke-linecap="butt">
<path stroke="#43a4e0" vector-effect="non-scaling-stroke" d="
  M 168.11 92.62
  L 96.60 30.29
  A 0.89 0.89 -45.4 0 0 95.42 30.29
  L 23.96 92.54"
/>
<path stroke="#77c7eb" vector-effect="non-scaling-stroke" d="
  M 167.96 96.25
  Q 167.33 96.51 166.75 96.00
  Q 131.83 65.04 96.91 34.39
  A 1.40 1.39 44.8 0 0 95.06 34.39
  Q 62.38 63.25 30.25 91.50
  Q 26.19 95.07 24.08 96.13"
/>
<path stroke="#6bcdfc" vector-effect="non-scaling-stroke" d="
  M 167.96 100.25
  Q 166.87 100.37 165.87 99.92
  Q 165.37 99.69 165.59 100.16
  Q 165.91 100.84 166.70 101.01
  A 0.64 0.56 5.4 0 1 167.21 101.55
  Q 167.29 103.40 167.25 105.25
  Q 167.23 105.98 167.01 106.26
  Q 166.64 106.73 166.51 105.94
  Q 166.15 103.67 163.77 103.88
  Q 162.31 104.01 162.20 104.01
  Q 147.47 104.13 132.58 104.00
  Q 130.19 103.98 130.91 101.70
  Q 133.93 92.05 129.38 83.91
  Q 125.21 76.46 116.79 73.32
  Q 107.67 69.91 99.11 74.42
  Q 95.11 76.52 86.36 85.26
  Q 75.56 96.07 64.75 106.87
  Q 56.19 115.44 54.33 119.44
  Q 50.53 127.61 53.43 137.92
  A 0.85 0.85 82.2 0 1 52.61 139.00
  Q 40.25 139.00 27.50 139.04
  Q 26.12 139.05 25.36 138.22
  Q 25.06 137.88 25.01 138.31
  Q 24.36 144.49 24.50 136.75
  Q 24.52 135.73 24.04 135.25"
/>
<path stroke="#5bbdee" vector-effect="non-scaling-stroke" d="
  M 54.04 127.75
  Q 53.32 136.17 58.80 142.45
  Q 64.32 148.76 72.28 149.97
  Q 76.41 150.59 80.61 149.28
  Q 85.28 147.83 88.06 145.06
  Q 102.56 130.64 117.00 116.15
  Q 125.86 107.25 127.29 104.73
  Q 131.30 97.61 128.96 88.50"
/>
<path stroke="#64c1ed" vector-effect="non-scaling-stroke" d="
  M 128.96 88.50
  Q 126.48 80.50 118.81 76.44
  Q 110.80 72.20 102.46 75.13
  Q 97.57 76.85 93.44 81.19
  Q 86.01 88.99 72.01 102.51
  Q 62.61 111.58 59.19 115.44
  Q 54.75 120.43 54.04 127.75"
/>
<path stroke="#62b6de" vector-effect="non-scaling-stroke" d="
  M 128.96 88.50
  Q 127.76 88.48 127.82 89.50
  Q 127.91 90.88 127.71 92.25"
/>
<path stroke="#a4cce0" vector-effect="non-scaling-stroke" d="
  M 127.71 92.25
  Q 126.39 84.87 121.22 80.34"
/>
<path stroke="#abd3e6" vector-effect="non-scaling-stroke" d="
  M 121.22 80.34
  Q 108.92 71.62 97.19 80.44
  Q 92.70 83.81 78.96 98.75"
/>
<path stroke="#ac7a93" vector-effect="non-scaling-stroke" d="
  M 78.96 98.75
  Q 71.06 106.33 63.31 114.06
  Q 56.89 120.48 56.04 128.25"
/>
<path stroke="#62b6de" vector-effect="non-scaling-stroke" d="
  M 56.04 128.25
  Q 55.54 126.54 54.04 127.75"
/>
<path stroke="#a37693" vector-effect="non-scaling-stroke" d="
  M 56.04 128.25
  Q 56.18 139.24 64.19 144.51
  Q 69.01 147.69 74.44 147.79
  Q 80.15 147.90 85.22 144.43
  Q 88.39 142.27 93.19 137.44
  Q 102.44 128.12 105.11 125.16"
/>
<path stroke="#e4e6e8" vector-effect="non-scaling-stroke" d="
  M 121.22 80.34
  Q 106.81 96.50 90.75 111.06"
/>
<path stroke="#ec949b" vector-effect="non-scaling-stroke" d="
  M 90.75 111.06
  Q 84.37 105.23 78.96 98.75"
/>
<path stroke="#9bc9e0" vector-effect="non-scaling-stroke" d="
  M 127.71 92.25
  Q 128.12 96.96 126.60 101.20
  Q 125.46 104.39 121.77 108.52
  Q 113.92 117.30 105.11 125.16"
/>
<path stroke="#e58d95" vector-effect="non-scaling-stroke" d="
  M 105.11 125.16
  L 90.75 111.06"
/>
</g>
<path fill="#128be4" d="
  M 168.11 92.62
  L 96.60 30.29
  A 0.89 0.89 -45.4 0 0 95.42 30.29
  L 23.96 92.54
  Q 18.78 89.93 14.25 84.25
  Q 12.61 82.19 12.95 80.23
  Q 13.18 78.89 15.14 77.14
  Q 52.19 43.85 89.71 11.11
  Q 92.72 8.48 95.05 8.22
  Q 98.79 7.79 102.06 10.69
  Q 139.84 44.16 177.58 77.67
  Q 179.33 79.23 179.16 81.22
  Q 179.05 82.55 177.66 84.41
  Q 173.90 89.43 168.11 92.62
  Z"
/>
<path fill="#74bcdc" d="
  M 168.11 92.62
  L 167.96 96.25
  Q 167.33 96.51 166.75 96.00
  Q 131.83 65.04 96.91 34.39
  A 1.40 1.39 44.8 0 0 95.06 34.39
  Q 62.38 63.25 30.25 91.50
  Q 26.19 95.07 24.08 96.13
  L 23.96 92.54
  L 95.42 30.29
  A 0.89 0.89 -46.3 0 1 96.60 30.29
  L 168.11 92.62
  Z"
/>
<path fill="#79d2fa" d="
  M 167.96 96.25
  L 167.96 100.25
  Q 166.87 100.37 165.87 99.92
  Q 165.37 99.69 165.59 100.16
  Q 165.91 100.84 166.70 101.01
  A 0.64 0.56 5.4 0 1 167.21 101.55
  Q 167.29 103.40 167.25 105.25
  Q 167.23 105.98 167.01 106.26
  Q 166.64 106.73 166.51 105.94
  Q 166.15 103.67 163.77 103.88
  Q 162.31 104.01 162.20 104.01
  Q 147.47 104.13 132.58 104.00
  Q 130.19 103.98 130.91 101.70
  Q 133.93 92.05 129.38 83.91
  Q 125.21 76.46 116.79 73.32
  Q 107.67 69.91 99.11 74.42
  Q 95.11 76.52 86.36 85.26
  Q 75.56 96.07 64.75 106.87
  Q 56.19 115.44 54.33 119.44
  Q 50.53 127.61 53.43 137.92
  A 0.85 0.85 82.2 0 1 52.61 139.00
  Q 40.25 139.00 27.50 139.04
  Q 26.12 139.05 25.36 138.22
  Q 25.06 137.88 25.01 138.31
  Q 24.36 144.49 24.50 136.75
  Q 24.52 135.73 24.04 135.25
  L 24.08 96.13
  Q 26.19 95.07 30.25 91.50
  Q 62.38 63.25 95.06 34.39
  A 1.40 1.39 44.8 0 1 96.91 34.39
  Q 131.83 65.04 166.75 96.00
  Q 167.33 96.51 167.96 96.25
  Z"
/>
<path fill="#5dc8fd" d="
  M 167.96 100.25
  Q 168.03 131.25 168.00 162.25
  Q 167.99 169.64 162.60 171.44
  Q 160.91 172.00 153.35 172.00
  Q 93.17 172.00 33.00 172.00
  Q 24.20 172.00 24.11 163.00
  Q 23.97 149.13 24.04 135.25
  Q 24.52 135.73 24.50 136.75
  Q 24.36 144.49 25.01 138.31
  Q 25.06 137.88 25.36 138.22
  Q 26.12 139.05 27.50 139.04
  Q 40.25 139.00 52.61 139.00
  A 0.85 0.85 82.2 0 0 53.43 137.92
  Q 50.53 127.61 54.33 119.44
  Q 56.19 115.44 64.75 106.87
  Q 75.56 96.07 86.36 85.26
  Q 95.11 76.52 99.11 74.42
  Q 107.67 69.91 116.79 73.32
  Q 125.21 76.46 129.38 83.91
  Q 133.93 92.05 130.91 101.70
  Q 130.19 103.98 132.58 104.00
  Q 147.47 104.13 162.20 104.01
  Q 162.31 104.01 163.77 103.88
  Q 166.15 103.67 166.51 105.94
  Q 166.64 106.73 167.01 106.26
  Q 167.23 105.98 167.25 105.25
  Q 167.29 103.40 167.21 101.55
  A 0.64 0.56 5.4 0 0 166.70 101.01
  Q 165.91 100.84 165.59 100.16
  Q 165.37 99.69 165.87 99.92
  Q 166.87 100.37 167.96 100.25
  Z
  M 54.04 127.75
  Q 53.32 136.17 58.80 142.45
  Q 64.32 148.76 72.28 149.97
  Q 76.41 150.59 80.61 149.28
  Q 85.28 147.83 88.06 145.06
  Q 102.56 130.64 117.00 116.15
  Q 125.86 107.25 127.29 104.73
  Q 131.30 97.61 128.96 88.50
  Q 126.48 80.50 118.81 76.44
  Q 110.80 72.20 102.46 75.13
  Q 97.57 76.85 93.44 81.19
  Q 86.01 88.99 72.01 102.51
  Q 62.61 111.58 59.19 115.44
  Q 54.75 120.43 54.04 127.75
  Z"
/>
<path fill="#6bb9dd" d="
  M 128.96 88.50
  Q 127.76 88.48 127.82 89.50
  Q 127.91 90.88 127.71 92.25
  Q 126.39 84.87 121.22 80.34
  Q 108.92 71.62 97.19 80.44
  Q 92.70 83.81 78.96 98.75
  Q 71.06 106.33 63.31 114.06
  Q 56.89 120.48 56.04 128.25
  Q 55.54 126.54 54.04 127.75
  Q 54.75 120.43 59.19 115.44
  Q 62.61 111.58 72.01 102.51
  Q 86.01 88.99 93.44 81.19
  Q 97.57 76.85 102.46 75.13
  Q 110.80 72.20 118.81 76.44
  Q 126.48 80.50 128.96 88.50
  Z"
/>
<path fill="#ebedee" d="
  M 121.22 80.34
  Q 106.81 96.50 90.75 111.06
  Q 84.37 105.23 78.96 98.75
  Q 92.70 83.81 97.19 80.44
  Q 108.92 71.62 121.22 80.34
  Z"
/>
<path fill="#dcdfe2" d="
  M 121.22 80.34
  Q 126.39 84.87 127.71 92.25
  Q 128.12 96.96 126.60 101.20
  Q 125.46 104.39 121.77 108.52
  Q 113.92 117.30 105.11 125.16
  L 90.75 111.06
  Q 106.81 96.50 121.22 80.34
  Z"
/>
<path fill="#59b2de" d="
  M 128.96 88.50
  Q 131.30 97.61 127.29 104.73
  Q 125.86 107.25 117.00 116.15
  Q 102.56 130.64 88.06 145.06
  Q 85.28 147.83 80.61 149.28
  Q 76.41 150.59 72.28 149.97
  Q 64.32 148.76 58.80 142.45
  Q 53.32 136.17 54.04 127.75
  Q 55.54 126.54 56.04 128.25
  Q 56.18 139.24 64.19 144.51
  Q 69.01 147.69 74.44 147.79
  Q 80.15 147.90 85.22 144.43
  Q 88.39 142.27 93.19 137.44
  Q 102.44 128.12 105.11 125.16
  Q 113.92 117.30 121.77 108.52
  Q 125.46 104.39 126.60 101.20
  Q 128.12 96.96 127.71 92.25
  Q 127.91 90.88 127.82 89.50
  Q 127.76 88.48 128.96 88.50
  Z"
/>
<path fill="#ed3a48" d="
  M 78.96 98.75
  Q 84.37 105.23 90.75 111.06
  L 105.11 125.16
  Q 102.44 128.12 93.19 137.44
  Q 88.39 142.27 85.22 144.43
  Q 80.15 147.90 74.44 147.79
  Q 69.01 147.69 64.19 144.51
  Q 56.18 139.24 56.04 128.25
  Q 56.89 120.48 63.31 114.06
  Q 71.06 106.33 78.96 98.75
  Z"
/>
</svg>
